<?xml version="1.0" standalone="no"?><!DOCTYPE svg PUBLIC "-//W3C//DTD SVG 1.1//EN" "http://www.w3.org/Graphics/SVG/1.1/DTD/svg11.dtd"><svg class="icon" width="200px" height="200.00px" viewBox="0 0 1024 1024" version="1.1" xmlns="http://www.w3.org/2000/svg"><path d="M0 0h1024v1024H0z" fill="#FFFFFF" /><path d="M212 80c-44.112 0-80 35.888-80 80v704c0 44.112 35.888 80 80 80h600c44.112 0 80-35.888 80-80V160c0-44.112-35.888-80-80-80H212m0-80h600c88.366 0 160 71.634 160 160v704c0 88.366-71.634 160-160 160H212c-88.366 0-160-71.634-160-160V160c0-88.366 71.634-160 160-160z" fill="#333333" /><path d="M322 12v1000a12 12 0 0 1-12 12h-56a12 12 0 0 1-12-12V12a12 12 0 0 1 12-12h56a12 12 0 0 1 12 12z" fill="#333333" /><path d="M678 80v199.11h88V80h-88m-60-60h208v283.652c0 19.582-17.908 35.458-40 35.458h-128c-22.092 0-40-15.876-40-35.458V20z" fill="#333333" /></svg>