<?xml version="1.0" standalone="no"?><!DOCTYPE svg PUBLIC "-//W3C//DTD SVG 1.1//EN" "http://www.w3.org/Graphics/SVG/1.1/DTD/svg11.dtd"><svg t="1668427726359" class="icon" viewBox="0 0 1024 1024" version="1.1" xmlns="http://www.w3.org/2000/svg" p-id="4353" xmlns:xlink="http://www.w3.org/1999/xlink" width="200" height="200"><path d="M903.424 658.248A31.656 31.656 0 0 1 904 664v0.08a30.824 30.824 0 0 1-0.624 6.208l-0.128 0.512a31.704 31.704 0 0 1-1.6 5.216c-0.184 0.456-0.416 0.88-0.616 1.32a32.096 32.096 0 0 1-2.096 3.856c-0.448 0.696-0.96 1.344-1.456 2a31.536 31.536 0 0 1-2.136 2.592 32.088 32.088 0 0 1-2.552 2.4c-0.624 0.528-1.216 1.072-1.88 1.552a32.072 32.072 0 0 1-3.72 2.304c-0.52 0.28-1.016 0.592-1.6 0.84a31.6 31.6 0 0 1-4.392 1.6c-0.456 0.136-0.856 0.368-1.32 0.488-0.176 0.048-0.352 0.04-0.528 0.088a32.328 32.328 0 0 1-3.272 0.52 33.336 33.336 0 0 1-3.888 0.392L872 696H552v192h104a32 32 0 0 1 0 64H368a32 32 0 0 1 0-64h120V696H151.792a33.36 33.36 0 0 1-3.888-0.392 32 32 0 0 1-3.272-0.52c-0.176-0.04-0.352 0-0.536-0.088-0.464-0.12-0.864-0.352-1.312-0.488a31.72 31.72 0 0 1-4.4-1.6c-0.536-0.256-1.032-0.56-1.552-0.84a31.816 31.816 0 0 1-3.72-2.304c-0.664-0.48-1.264-1.024-1.88-1.552a25.944 25.944 0 0 1-4.688-4.96c-0.496-0.664-1.008-1.304-1.456-2a31.752 31.752 0 0 1-2.096-3.856c-0.208-0.44-0.432-0.864-0.616-1.32a31.336 31.336 0 0 1-1.6-5.216c0-0.176-0.088-0.336-0.128-0.512A31.112 31.112 0 0 1 120 664.08V664a31.2 31.2 0 0 1 0.576-5.712c0.064-0.336 0.096-0.68 0.168-1.016 0.112-0.496 0.112-0.992 0.248-1.48l126.88-560.08a32.504 32.504 0 0 1 31.656-23.624C279.688 72.048 279.84 72 280 72h456a31.56 31.56 0 0 1 4 0.4 32.576 32.576 0 0 1 36.152 23.264l126.88 560.088c0.136 0.496 0.136 0.984 0.24 1.48 0.048 0.368 0.088 0.68 0.152 1.016zM830.24 632l-22.912-96H216.672L193.76 632h636.48zM719.488 136H304.512l-72.56 336h560.104z" fill="#ff5555" p-id="4354"></path></svg>