<svg xmlns="http://www.w3.org/2000/svg" viewBox="0 0 32 32" width="98" height="98" style="border-color: rgba(187,187,187,1);border-width: 0px;border-style: solid" filter="none">
    
    <g>
    <path d="M19.008 28.992l-3.008 3.008-3.008-3.008c-5.912-1.365-10.325-6.667-10.325-12.992 0-7.36 5.973-13.333 13.333-13.333s13.333 5.973 13.333 13.333c0 6.325-4.413 11.627-10.325 12.992zM8.031 20.555c1.957 2.92 4.896 4.779 8.183 4.779 3.285 0 6.225-1.857 8.181-4.779-2.131-1.996-5.005-3.221-8.165-3.221-0.006 0-0.012 0-0.018 0h0.001c-0.005 0-0.012 0-0.018 0-3.16 0-6.033 1.226-8.171 3.227l0.007-0.006zM16 14.667c2.209 0 4-1.791 4-4s-1.791-4-4-4v0c-2.209 0-4 1.791-4 4s1.791 4 4 4v0z" fill="rgba(16.065,16.065,16.065,0.61)"></path>
    </g>
  </svg>