<svg t="1658978439865" class="icon" viewBox="0 0 1024 1024" version="1.1" xmlns="http://www.w3.org/2000/svg" p-id="12547" width="200" height="200"><path d="M1003.333333 399.646667a21.333333 21.333333 0 0 0-17.226666-14.513334l-314.373334-45.686666L531.133333 54.56a21.333333 21.333333 0 0 0-38.266666 0L352.266667 339.446667 37.88 385.133333a21.333333 21.333333 0 0 0-11.826667 36.386667l227.5 221.753333-53.706666 313.12a21.333333 21.333333 0 0 0 30.953333 22.486667L512 831.046667l281.2 147.833333a21.333333 21.333333 0 0 0 30.953333-22.486667l-53.706666-313.12 227.5-221.753333a21.333333 21.333333 0 0 0 5.386666-21.873333z" fill="#5C5C66" p-id="12548"></path></svg>